<svg width="114" height="23" viewBox="0 0 114 23" fill="none" xmlns="http://www.w3.org/2000/svg">
<rect x="11" y="13" width="10" height="10" fill="#FFBA00"/>
<rect y="13" width="10" height="10" fill="#00A5EF"/>
<rect x="11" y="2" width="10" height="10" fill="#80BB00"/>
<rect y="2" width="10" height="10" fill="#F24F1C"/>
<path d="M33.2422 20L28.5352 7.48047H28.457C28.5547 8.52214 28.6035 9.80794 28.6035 11.3379V20H26.9434V5.72266H29.5996L34.0039 17.4219H34.082L38.5645 5.72266H41.2012V20H39.4238V11.2207C39.4238 10.2441 39.4694 9.00391 39.5605 7.5H39.4824L34.7168 20H33.2422ZM46.6016 20H44.8438V9.27734H46.6016V20ZM44.707 6.37695C44.707 5.98633 44.8047 5.70312 45 5.52734C45.2018 5.35156 45.4492 5.26367 45.7422 5.26367C46.0156 5.26367 46.2533 5.35156 46.4551 5.52734C46.6634 5.70312 46.7676 5.98633 46.7676 6.37695C46.7676 6.76107 46.6634 7.04427 46.4551 7.22656C46.2533 7.40885 46.0156 7.5 45.7422 7.5C45.4492 7.5 45.2018 7.40885 45 7.22656C44.8047 7.04427 44.707 6.76107 44.707 6.37695ZM54.2969 20.1953C52.7539 20.1953 51.5527 19.7233 50.6934 18.7793C49.834 17.8288 49.4043 16.4681 49.4043 14.6973C49.4043 12.9004 49.8372 11.5169 50.7031 10.5469C51.5755 9.57031 52.8158 9.08203 54.4238 9.08203C54.9447 9.08203 55.459 9.13737 55.9668 9.24805C56.4811 9.35221 56.9043 9.48893 57.2363 9.6582L56.6992 11.123C55.7943 10.7845 55.0228 10.6152 54.3848 10.6152C53.304 10.6152 52.5065 10.957 51.9922 11.6406C51.4779 12.3177 51.2207 13.3301 51.2207 14.6777C51.2207 15.9733 51.4779 16.9661 51.9922 17.6562C52.5065 18.3398 53.2682 18.6816 54.2773 18.6816C55.2214 18.6816 56.1491 18.4733 57.0605 18.0566V19.6191C56.3184 20.0033 55.3971 20.1953 54.2969 20.1953ZM64.6094 9.08203C65.0846 9.08203 65.5046 9.12109 65.8691 9.19922L65.6543 10.8203C65.2572 10.7292 64.8698 10.6836 64.4922 10.6836C63.9258 10.6836 63.3984 10.8398 62.9102 11.1523C62.4284 11.4648 62.0508 11.8978 61.7773 12.4512C61.5039 12.998 61.3672 13.6068 61.3672 14.2773V20H59.6094V9.27734H61.0547L61.25 11.2402H61.3281C61.7383 10.5306 62.2233 9.99349 62.7832 9.62891C63.3431 9.26432 63.9518 9.08203 64.6094 9.08203ZM76.9922 14.6191C76.9922 16.3704 76.5495 17.7376 75.6641 18.7207C74.7786 19.7038 73.5547 20.1953 71.9922 20.1953C71.0221 20.1953 70.1628 19.9707 69.4141 19.5215C68.6654 19.0658 68.0892 18.4147 67.6855 17.5684C67.2819 16.722 67.0801 15.7389 67.0801 14.6191C67.0801 12.8743 67.5163 11.5169 68.3887 10.5469C69.2611 9.57031 70.485 9.08203 72.0605 9.08203C73.571 9.08203 74.7689 9.58008 75.6543 10.5762C76.5462 11.5658 76.9922 12.9134 76.9922 14.6191ZM68.8965 14.6191C68.8965 15.9668 69.1602 16.9922 69.6875 17.6953C70.2214 18.3919 71.0059 18.7402 72.041 18.7402C73.0632 18.7402 73.8411 18.3919 74.375 17.6953C74.9089 16.9922 75.1758 15.9668 75.1758 14.6191C75.1758 13.2715 74.9056 12.2591 74.3652 11.582C73.8314 10.8984 73.0469 10.5566 72.0117 10.5566C69.9349 10.5566 68.8965 11.9108 68.8965 14.6191ZM86.7676 17.041C86.7676 18.0436 86.3932 18.8216 85.6445 19.375C84.8958 19.9219 83.8444 20.1953 82.4902 20.1953C81.0775 20.1953 79.9544 19.9707 79.1211 19.5215V17.9199C80.2995 18.4928 81.4355 18.7793 82.5293 18.7793C83.4147 18.7793 84.0592 18.6361 84.4629 18.3496C84.8665 18.0632 85.0684 17.679 85.0684 17.1973C85.0684 16.7741 84.873 16.416 84.4824 16.123C84.0983 15.8301 83.4115 15.4948 82.4219 15.1172C81.4128 14.7266 80.7031 14.3945 80.293 14.1211C79.8828 13.8411 79.5801 13.5286 79.3848 13.1836C79.196 12.8385 79.1016 12.4186 79.1016 11.9238C79.1016 11.0449 79.4596 10.3516 80.1758 9.84375C80.8919 9.33594 81.875 9.08203 83.125 9.08203C84.3424 9.08203 85.4818 9.32292 86.543 9.80469L85.9473 11.2012C84.86 10.7454 83.8802 10.5176 83.0078 10.5176C82.2786 10.5176 81.7253 10.6348 81.3477 10.8691C80.9701 11.097 80.7812 11.4128 80.7812 11.8164C80.7812 12.207 80.944 12.5326 81.2695 12.793C81.5951 13.0469 82.3535 13.4017 83.5449 13.8574C84.4368 14.1895 85.0944 14.4987 85.5176 14.7852C85.9473 15.0716 86.263 15.3939 86.4648 15.752C86.6667 16.11 86.7676 16.5397 86.7676 17.041ZM98.6914 14.6191C98.6914 16.3704 98.2487 17.7376 97.3633 18.7207C96.4779 19.7038 95.2539 20.1953 93.6914 20.1953C92.7214 20.1953 91.862 19.9707 91.1133 19.5215C90.3646 19.0658 89.7884 18.4147 89.3848 17.5684C88.9811 16.722 88.7793 15.7389 88.7793 14.6191C88.7793 12.8743 89.2155 11.5169 90.0879 10.5469C90.9603 9.57031 92.1842 9.08203 93.7598 9.08203C95.2702 9.08203 96.4681 9.58008 97.3535 10.5762C98.2454 11.5658 98.6914 12.9134 98.6914 14.6191ZM90.5957 14.6191C90.5957 15.9668 90.8594 16.9922 91.3867 17.6953C91.9206 18.3919 92.7051 18.7402 93.7402 18.7402C94.7624 18.7402 95.5404 18.3919 96.0742 17.6953C96.6081 16.9922 96.875 15.9668 96.875 14.6191C96.875 13.2715 96.6048 12.2591 96.0645 11.582C95.5306 10.8984 94.7461 10.5566 93.7109 10.5566C91.6341 10.5566 90.5957 11.9108 90.5957 14.6191ZM106.426 10.6445H103.721V20H101.963V10.6445H100.088V9.82422L101.963 9.21875V8.60352C101.963 7.30143 102.246 6.32487 102.812 5.67383C103.385 5.02279 104.264 4.69727 105.449 4.69727C106.133 4.69727 106.826 4.81771 107.529 5.05859L107.061 6.43555C106.455 6.24023 105.924 6.14258 105.469 6.14258C104.876 6.14258 104.437 6.33789 104.15 6.72852C103.864 7.11914 103.721 7.73763 103.721 8.58398V9.27734H106.426V10.6445ZM111.963 18.7598C112.191 18.7598 112.458 18.737 112.764 18.6914C113.07 18.6458 113.301 18.5938 113.457 18.5352V19.8828C113.294 19.9544 113.04 20.0228 112.695 20.0879C112.357 20.1595 112.012 20.1953 111.66 20.1953C109.564 20.1953 108.516 19.0918 108.516 16.8848V10.6445H107.002V9.80469L108.535 9.10156L109.238 6.81641H110.283V9.27734H113.379V10.6445H110.283V16.8359C110.283 17.4544 110.43 17.9297 110.723 18.2617C111.022 18.5938 111.436 18.7598 111.963 18.7598Z" fill="white"/>
<path d="M33.2422 20L33.055 20.0704L33.1037 20.2H33.2422V20ZM28.5352 7.48047L28.7224 7.41008L28.6736 7.28047H28.5352V7.48047ZM28.457 7.48047V7.28047H28.2374L28.2579 7.49914L28.457 7.48047ZM28.6035 20V20.2H28.8035V20H28.6035ZM26.9434 20H26.7434V20.2H26.9434V20ZM26.9434 5.72266V5.52266H26.7434V5.72266H26.9434ZM29.5996 5.72266L29.7868 5.65219L29.738 5.52266H29.5996V5.72266ZM34.0039 17.4219L33.8167 17.4923L33.8655 17.6219H34.0039V17.4219ZM34.082 17.4219V17.6219H34.2196L34.2688 17.4934L34.082 17.4219ZM38.5645 5.72266V5.52266H38.4269L38.3777 5.6511L38.5645 5.72266ZM41.2012 5.72266H41.4012V5.52266H41.2012V5.72266ZM41.2012 20V20.2H41.4012V20H41.2012ZM39.4238 20H39.2238V20.2H39.4238V20ZM39.5605 7.5L39.7602 7.5121L39.773 7.3H39.5605V7.5ZM39.4824 7.5V7.3H39.3446L39.2955 7.42875L39.4824 7.5ZM34.7168 20V20.2H34.8546L34.9037 20.0712L34.7168 20ZM33.4294 19.9296L28.7224 7.41008L28.348 7.55085L33.055 20.0704L33.4294 19.9296ZM28.5352 7.28047H28.457V7.68047H28.5352V7.28047ZM28.2579 7.49914C28.3548 8.53248 28.4035 9.81161 28.4035 11.3379H28.8035C28.8035 9.80427 28.7546 8.51179 28.6562 7.4618L28.2579 7.49914ZM28.4035 11.3379V20H28.8035V11.3379H28.4035ZM28.6035 19.8H26.9434V20.2H28.6035V19.8ZM27.1434 20V5.72266H26.7434V20H27.1434ZM26.9434 5.92266H29.5996V5.52266H26.9434V5.92266ZM29.4124 5.79312L33.8167 17.4923L34.1911 17.3514L29.7868 5.65219L29.4124 5.79312ZM34.0039 17.6219H34.082V17.2219H34.0039V17.6219ZM34.2688 17.4934L38.7512 5.79421L38.3777 5.6511L33.8953 17.3503L34.2688 17.4934ZM38.5645 5.92266H41.2012V5.52266H38.5645V5.92266ZM41.0012 5.72266V20H41.4012V5.72266H41.0012ZM41.2012 19.8H39.4238V20.2H41.2012V19.8ZM39.6238 20V11.2207H39.2238V20H39.6238ZM39.6238 11.2207C39.6238 10.2497 39.6692 9.01388 39.7602 7.5121L39.3609 7.4879C39.2696 8.99393 39.2238 10.2386 39.2238 11.2207H39.6238ZM39.5605 7.3H39.4824V7.7H39.5605V7.3ZM39.2955 7.42875L34.5299 19.9288L34.9037 20.0712L39.6693 7.57125L39.2955 7.42875ZM34.7168 19.8H33.2422V20.2H34.7168V19.8ZM46.6016 20V20.2H46.8016V20H46.6016ZM44.8438 20H44.6437V20.2H44.8438V20ZM44.8438 9.27734V9.07734H44.6437V9.27734H44.8438ZM46.6016 9.27734H46.8016V9.07734H46.6016V9.27734ZM45 5.52734L44.8686 5.37651L44.8662 5.37868L45 5.52734ZM46.4551 5.52734L46.3237 5.67818L46.3261 5.6802L46.4551 5.52734ZM46.4551 7.22656L46.3234 7.07603L46.321 7.07814L46.4551 7.22656ZM45 7.22656L44.8635 7.37279L44.8659 7.37498L45 7.22656ZM46.6016 19.8H44.8438V20.2H46.6016V19.8ZM45.0438 20V9.27734H44.6437V20H45.0438ZM44.8438 9.47734H46.6016V9.07734H44.8438V9.47734ZM46.4016 9.27734V20H46.8016V9.27734H46.4016ZM44.907 6.37695C44.907 6.01521 44.9976 5.79856 45.1338 5.676L44.8662 5.37868C44.6118 5.60769 44.507 5.95745 44.507 6.37695H44.907ZM45.1314 5.67816C45.2932 5.53718 45.4926 5.46367 45.7422 5.46367V5.06367C45.4059 5.06367 45.1104 5.16594 44.8686 5.37653L45.1314 5.67816ZM45.7422 5.46367C45.9685 5.46367 46.1592 5.53484 46.3237 5.67816L46.5864 5.37653C46.3473 5.16829 46.0628 5.06367 45.7422 5.06367V5.46367ZM46.3261 5.6802C46.4725 5.80374 46.5676 6.01887 46.5676 6.37695H46.9676C46.9676 5.95379 46.8543 5.60251 46.5841 5.37449L46.3261 5.6802ZM46.5676 6.37695C46.5676 6.72665 46.4734 6.94475 46.3234 7.07605L46.5868 7.37708C46.8534 7.14379 46.9676 6.79549 46.9676 6.37695H46.5676ZM46.321 7.07814C46.1562 7.22703 45.9664 7.3 45.7422 7.3V7.7C46.0649 7.7 46.3503 7.59067 46.5891 7.37498L46.321 7.07814ZM45.7422 7.3C45.4946 7.3 45.2961 7.22454 45.1341 7.07814L44.8659 7.37498C45.1075 7.59316 45.4039 7.7 45.7422 7.7V7.3ZM45.1365 7.08035C44.9967 6.94993 44.907 6.73028 44.907 6.37695H44.507C44.507 6.79186 44.6126 7.13861 44.8635 7.37277L45.1365 7.08035ZM50.6934 18.7793L50.545 18.9134L50.5455 18.9139L50.6934 18.7793ZM50.7031 10.5469L50.554 10.4136L50.5539 10.4137L50.7031 10.5469ZM55.9668 9.24805L55.9242 9.44348L55.9271 9.44407L55.9668 9.24805ZM57.2363 9.6582L57.4241 9.72705L57.4851 9.56056L57.3272 9.48002L57.2363 9.6582ZM56.6992 11.123L56.6291 11.3104L56.8177 11.3809L56.887 11.1919L56.6992 11.123ZM51.9922 11.6406L52.1515 11.7616L52.152 11.7609L51.9922 11.6406ZM51.9922 17.6562L51.8318 17.7758L51.8324 17.7765L51.9922 17.6562ZM57.0605 18.0566H57.2605V17.7453L56.9774 17.8747L57.0605 18.0566ZM57.0605 19.6191L57.1525 19.7968L57.2605 19.7408V19.6191H57.0605ZM54.2969 19.9953C52.7975 19.9953 51.6549 19.5385 50.8413 18.6447L50.5455 18.9139C51.4505 19.9081 52.7103 20.3953 54.2969 20.3953V19.9953ZM50.8417 18.6452C50.0264 17.7434 49.6043 16.4376 49.6043 14.6973H49.2043C49.2043 16.4986 49.6415 17.9141 50.545 18.9134L50.8417 18.6452ZM49.6043 14.6973C49.6043 12.9307 50.0298 11.6015 50.8523 10.6801L50.5539 10.4137C49.6446 11.4323 49.2043 12.8701 49.2043 14.6973H49.6043ZM50.8523 10.6801C51.6783 9.75549 52.8587 9.28203 54.4238 9.28203V8.88203C52.7729 8.88203 51.4728 9.38514 50.554 10.4136L50.8523 10.6801ZM54.4238 9.28203C54.9304 9.28203 55.4304 9.33584 55.9242 9.44346L56.0094 9.05263C55.4876 8.9389 54.959 8.88203 54.4238 8.88203V9.28203ZM55.9271 9.44407C56.4303 9.54597 56.8347 9.67794 57.1455 9.83638L57.3272 9.48002C56.9739 9.29992 56.532 9.15845 56.0065 9.05203L55.9271 9.44407ZM57.0486 9.58935L56.5114 11.0542L56.887 11.1919L57.4241 9.72705L57.0486 9.58935ZM56.7693 10.9357C55.8523 10.5927 55.0557 10.4152 54.3848 10.4152V10.8152C54.9899 10.8152 55.7363 10.9763 56.6291 11.3104L56.7693 10.9357ZM54.3848 10.4152C53.2595 10.4152 52.3943 10.7736 51.8324 11.5204L52.152 11.7609C52.6188 11.1405 53.3486 10.8152 54.3848 10.8152V10.4152ZM51.8329 11.5196C51.2807 12.2466 51.0207 13.3102 51.0207 14.6777H51.4207C51.4207 13.35 51.675 12.3888 52.1514 11.7616L51.8329 11.5196ZM51.0207 14.6777C51.0207 15.9957 51.2817 17.0376 51.8318 17.7758L52.1525 17.5367C51.674 16.8947 51.4207 15.9509 51.4207 14.6777H51.0207ZM51.8324 17.7765C52.3915 18.5197 53.2181 18.8816 54.2773 18.8816V18.4816C53.3183 18.4816 52.6215 18.16 52.152 17.536L51.8324 17.7765ZM54.2773 18.8816C55.2518 18.8816 56.2078 18.6664 57.1437 18.2385L56.9774 17.8747C56.0904 18.2802 55.1909 18.4816 54.2773 18.4816V18.8816ZM56.8605 18.0566V19.6191H57.2605V18.0566H56.8605ZM56.9686 19.4415C56.2624 19.807 55.3749 19.9953 54.2969 19.9953V20.3953C55.4194 20.3953 56.3743 20.1995 57.1525 19.7968L56.9686 19.4415ZM65.8691 9.19922L66.0674 9.2255L66.0917 9.04237L65.911 9.00366L65.8691 9.19922ZM65.6543 10.8203L65.6096 11.0152L65.8237 11.0644L65.8526 10.8466L65.6543 10.8203ZM62.9102 11.1523L62.8023 10.9839L62.8013 10.9846L62.9102 11.1523ZM61.7773 12.4512L61.9562 12.5406L61.9566 12.5398L61.7773 12.4512ZM61.3672 20V20.2H61.5672V20H61.3672ZM59.6094 20H59.4094V20.2H59.6094V20ZM59.6094 9.27734V9.07734H59.4094V9.27734H59.6094ZM61.0547 9.27734L61.2537 9.25754L61.2358 9.07734H61.0547V9.27734ZM61.25 11.2402L61.051 11.26L61.0689 11.4402H61.25V11.2402ZM61.3281 11.2402V11.4402H61.4435L61.5013 11.3403L61.3281 11.2402ZM62.7832 9.62891L62.6741 9.46131L62.7832 9.62891ZM64.6094 9.28203C65.0742 9.28203 65.4796 9.32028 65.8272 9.39478L65.911 9.00366C65.5295 8.92191 65.0951 8.88203 64.6094 8.88203V9.28203ZM65.6709 9.17294L65.456 10.794L65.8526 10.8466L66.0674 9.2255L65.6709 9.17294ZM65.699 10.6254C65.2884 10.5311 64.886 10.4836 64.4922 10.4836V10.8836C64.8536 10.8836 65.2259 10.9272 65.6096 11.0152L65.699 10.6254ZM64.4922 10.4836C63.8866 10.4836 63.322 10.6513 62.8023 10.9839L63.018 11.3208C63.4749 11.0284 63.9649 10.8836 64.4922 10.8836V10.4836ZM62.8013 10.9846C62.2871 11.3181 61.8862 11.7794 61.598 12.3626L61.9566 12.5398C62.2154 12.0161 62.5697 11.6116 63.019 11.3201L62.8013 10.9846ZM61.5985 12.3617C61.3098 12.939 61.1672 13.5788 61.1672 14.2773H61.5672C61.5672 13.6348 61.698 13.0571 61.9562 12.5406L61.5985 12.3617ZM61.1672 14.2773V20H61.5672V14.2773H61.1672ZM61.3672 19.8H59.6094V20.2H61.3672V19.8ZM59.8094 20V9.27734H59.4094V20H59.8094ZM59.6094 9.47734H61.0547V9.07734H59.6094V9.47734ZM60.8557 9.29715L61.051 11.26L61.449 11.2204L61.2537 9.25754L60.8557 9.29715ZM61.25 11.4402H61.3281V11.0402H61.25V11.4402ZM61.5013 11.3403C61.8992 10.6518 62.3641 10.1405 62.8923 9.79651L62.6741 9.46131C62.0825 9.84651 61.5774 10.4094 61.155 11.1402L61.5013 11.3403ZM62.8923 9.79651C63.4203 9.45271 63.9912 9.28203 64.6094 9.28203V8.88203C63.9124 8.88203 63.2659 9.07594 62.6741 9.46131L62.8923 9.79651ZM75.6641 18.7207L75.5155 18.5869L75.6641 18.7207ZM69.4141 19.5215L69.3101 19.6923L69.3112 19.693L69.4141 19.5215ZM68.3887 10.5469L68.5374 10.6806L68.5378 10.6801L68.3887 10.5469ZM75.6543 10.5762L75.5048 10.709L75.5057 10.7101L75.6543 10.5762ZM69.6875 17.6953L69.5275 17.8153L69.5288 17.817L69.6875 17.6953ZM74.375 17.6953L74.5337 17.817L74.5343 17.8163L74.375 17.6953ZM74.3652 11.582L74.2076 11.7051L74.2089 11.7068L74.3652 11.582ZM76.7922 14.6191C76.7922 16.3373 76.3583 17.6511 75.5155 18.5869L75.8127 18.8546C76.7407 17.8242 77.1922 16.4036 77.1922 14.6191H76.7922ZM75.5155 18.5869C74.6749 19.5201 73.5092 19.9953 71.9922 19.9953V20.3953C73.6001 20.3953 74.8824 19.8874 75.8127 18.8546L75.5155 18.5869ZM71.9922 19.9953C71.0542 19.9953 70.2312 19.7785 69.517 19.35L69.3112 19.693C70.0943 20.1629 70.99 20.3953 71.9922 20.3953V19.9953ZM69.5181 19.3506C68.8049 18.9166 68.2542 18.2961 67.8661 17.4823L67.505 17.6545C67.9242 18.5333 68.5258 19.215 69.3101 19.6923L69.5181 19.3506ZM67.8661 17.4823C67.4775 16.6675 67.2801 15.7149 67.2801 14.6191H66.8801C66.8801 15.763 67.0863 16.7765 67.505 17.6545L67.8661 17.4823ZM67.2801 14.6191C67.2801 12.9068 67.7078 11.6031 68.5374 10.6806L68.24 10.4131C67.3248 11.4308 66.8801 12.8419 66.8801 14.6191H67.2801ZM68.5378 10.6801C69.3646 9.7546 70.5294 9.28203 72.0605 9.28203V8.88203C70.4407 8.88203 69.1575 9.38602 68.2395 10.4136L68.5378 10.6801ZM72.0605 9.28203C73.5223 9.28203 74.6626 9.76159 75.5048 10.709L75.8038 10.4433C74.8751 9.39857 73.6196 8.88203 72.0605 8.88203V9.28203ZM75.5057 10.7101C76.3561 11.6535 76.7922 12.9486 76.7922 14.6191H77.1922C77.1922 12.8783 76.7364 11.478 75.8029 10.4423L75.5057 10.7101ZM68.6965 14.6191C68.6965 15.9883 68.9636 17.0635 69.5275 17.8153L69.8475 17.5753C69.3567 16.9209 69.0965 15.9453 69.0965 14.6191H68.6965ZM69.5288 17.817C70.1075 18.5722 70.9562 18.9402 72.041 18.9402V18.5402C71.0555 18.5402 70.3352 18.2117 69.8462 17.5737L69.5288 17.817ZM72.041 18.9402C73.1138 18.9402 73.9555 18.5715 74.5337 17.817L74.2163 17.5737C73.7268 18.2124 73.0125 18.5402 72.041 18.5402V18.9402ZM74.5343 17.8163C75.1052 17.0643 75.3758 15.9887 75.3758 14.6191H74.9758C74.9758 15.9449 74.7125 16.9201 74.2157 17.5744L74.5343 17.8163ZM75.3758 14.6191C75.3758 13.2499 75.1021 12.1847 74.5216 11.4573L74.2089 11.7068C74.7091 12.3335 74.9758 13.293 74.9758 14.6191H75.3758ZM74.5229 11.4589C73.9436 10.7172 73.0951 10.3566 72.0117 10.3566V10.7566C72.9986 10.7566 73.7192 11.0797 74.2076 11.7051L74.5229 11.4589ZM72.0117 10.3566C70.9262 10.3566 70.0819 10.7133 69.5166 11.4506C68.9589 12.1778 68.6965 13.245 68.6965 14.6191H69.0965C69.0965 13.2849 69.3532 12.3209 69.834 11.694C70.3071 11.0771 71.0205 10.7566 72.0117 10.7566V10.3566ZM85.6445 19.375L85.7625 19.5365L85.7634 19.5358L85.6445 19.375ZM79.1211 19.5215H78.9211V19.6409L79.0262 19.6975L79.1211 19.5215ZM79.1211 17.9199L79.2085 17.7401L78.9211 17.6003V17.9199H79.1211ZM84.4824 16.123L84.3611 16.2821L84.3624 16.283L84.4824 16.123ZM82.4219 15.1172L82.3497 15.3037L82.3506 15.304L82.4219 15.1172ZM80.293 14.1211L80.1802 14.2863L80.182 14.2875L80.293 14.1211ZM79.3848 13.1836L79.2093 13.2796L79.2107 13.2821L79.3848 13.1836ZM86.543 9.80469L86.7269 9.88316L86.8036 9.70338L86.6256 9.62258L86.543 9.80469ZM85.9473 11.2012L85.8699 11.3856L86.0532 11.4625L86.1312 11.2796L85.9473 11.2012ZM81.3477 10.8691L81.451 11.0404L81.4531 11.0391L81.3477 10.8691ZM81.2695 12.793L81.1446 12.9492L81.1465 12.9507L81.2695 12.793ZM83.5449 13.8574L83.4735 14.0442L83.4751 14.0449L83.5449 13.8574ZM85.5176 14.7852L85.4055 14.9508L85.4066 14.9516L85.5176 14.7852ZM86.5676 17.041C86.5676 17.9859 86.2189 18.7017 85.5257 19.2142L85.7634 19.5358C86.5675 18.9415 86.9676 18.1014 86.9676 17.041H86.5676ZM85.5266 19.2135C84.8246 19.7262 83.8207 19.9953 82.4902 19.9953V20.3953C83.8681 20.3953 84.967 20.1175 85.7625 19.5365L85.5266 19.2135ZM82.4902 19.9953C81.0956 19.9953 80.0093 19.7731 79.216 19.3454L79.0262 19.6975C79.8996 20.1683 81.0594 20.3953 82.4902 20.3953V19.9953ZM79.3211 19.5215V17.9199H78.9211V19.5215H79.3211ZM79.0336 18.0998C80.2339 18.6834 81.3998 18.9793 82.5293 18.9793V18.5793C81.4713 18.5793 80.365 18.3023 79.2085 17.7401L79.0336 18.0998ZM82.5293 18.9793C83.4275 18.9793 84.1236 18.8357 84.5786 18.5127L84.3471 18.1865C83.9949 18.4365 83.4019 18.5793 82.5293 18.5793V18.9793ZM84.5786 18.5127C85.0334 18.19 85.2684 17.7459 85.2684 17.1973H84.8684C84.8684 17.6122 84.6997 17.9363 84.3471 18.1865L84.5786 18.5127ZM85.2684 17.1973C85.2684 16.7009 85.0346 16.2872 84.6024 15.963L84.3624 16.283C84.7115 16.5449 84.8684 16.8473 84.8684 17.1973H85.2684ZM84.6037 15.964C84.195 15.6523 83.4846 15.3086 82.4932 14.9303L82.3506 15.304C83.3383 15.681 84.0017 16.0079 84.3611 16.2821L84.6037 15.964ZM82.4941 14.9307C81.4864 14.5406 80.7945 14.2151 80.4039 13.9547L80.182 14.2875C80.6118 14.574 81.3391 14.9125 82.3497 15.3037L82.4941 14.9307ZM80.4057 13.9559C80.0146 13.689 79.7357 13.3976 79.5588 13.0851L79.2107 13.2821C79.4244 13.6596 79.751 13.9933 80.1802 14.2863L80.4057 13.9559ZM79.5602 13.0876C79.3912 12.7786 79.3016 12.3936 79.3016 11.9238H78.9016C78.9016 12.4437 79.0008 12.8985 79.2093 13.2796L79.5602 13.0876ZM79.3016 11.9238C79.3016 11.1097 79.6283 10.4772 80.2915 10.0069L80.0601 9.6806C79.291 10.226 78.9016 10.9802 78.9016 11.9238H79.3016ZM80.2915 10.0069C80.9622 9.53128 81.8995 9.28203 83.125 9.28203V8.88203C81.8505 8.88203 80.8216 9.1406 80.0601 9.6806L80.2915 10.0069ZM83.125 9.28203C84.3152 9.28203 85.4262 9.51734 86.4603 9.9868L86.6256 9.62258C85.5373 9.12849 84.3697 8.88203 83.125 8.88203V9.28203ZM86.359 9.72621L85.7633 11.1227L86.1312 11.2796L86.7269 9.88316L86.359 9.72621ZM86.0246 11.0167C84.921 10.5541 83.9143 10.3176 83.0078 10.3176V10.7176C83.8461 10.7176 84.7991 10.9368 85.8699 11.3856L86.0246 11.0167ZM83.0078 10.3176C82.2628 10.3176 81.6657 10.4363 81.2422 10.6992L81.4531 11.0391C81.7848 10.8332 82.2945 10.7176 83.0078 10.7176V10.3176ZM81.2443 10.6979C80.8134 10.9579 80.5812 11.3352 80.5812 11.8164H80.9813C80.9813 11.4903 81.1267 11.2361 81.451 11.0404L81.2443 10.6979ZM80.5812 11.8164C80.5812 12.2723 80.7753 12.6537 81.1446 12.9491L81.3945 12.6368C81.1127 12.4114 80.9813 12.1417 80.9813 11.8164H80.5812ZM81.1465 12.9507C81.3279 13.0921 81.6158 13.252 81.9978 13.4307C82.383 13.6109 82.8753 13.8154 83.4735 14.0442L83.6164 13.6706C83.0231 13.4437 82.5405 13.243 82.1673 13.0684C81.7907 12.8922 81.5367 12.7477 81.3925 12.6353L81.1465 12.9507ZM83.4751 14.0449C84.3626 14.3752 85.0023 14.6779 85.4055 14.9508L85.6297 14.6195C85.1865 14.3195 84.5111 14.0037 83.6147 13.67L83.4751 14.0449ZM85.4066 14.9516C85.8167 15.2249 86.1077 15.5256 86.2906 15.8502L86.6391 15.6538C86.4184 15.2622 86.0778 14.9183 85.6285 14.6187L85.4066 14.9516ZM86.2906 15.8502C86.4722 16.1723 86.5676 16.5666 86.5676 17.041H86.9676C86.9676 16.5128 86.8611 16.0477 86.6391 15.6538L86.2906 15.8502ZM97.3633 18.7207L97.2147 18.5869L97.3633 18.7207ZM91.1133 19.5215L91.0093 19.6923L91.0104 19.693L91.1133 19.5215ZM90.0879 10.5469L90.2366 10.6806L90.237 10.6801L90.0879 10.5469ZM97.3535 10.5762L97.204 10.709L97.205 10.7101L97.3535 10.5762ZM91.3867 17.6953L91.2267 17.8153L91.228 17.817L91.3867 17.6953ZM96.0742 17.6953L96.233 17.817L96.2335 17.8163L96.0742 17.6953ZM96.0645 11.582L95.9068 11.7051L95.9081 11.7068L96.0645 11.582ZM98.4914 14.6191C98.4914 16.3373 98.0575 17.6511 97.2147 18.5869L97.5119 18.8546C98.4399 17.8242 98.8914 16.4036 98.8914 14.6191H98.4914ZM97.2147 18.5869C96.3741 19.5201 95.2085 19.9953 93.6914 19.9953V20.3953C95.2994 20.3953 96.5816 19.8874 97.5119 18.8546L97.2147 18.5869ZM93.6914 19.9953C92.7535 19.9953 91.9304 19.7785 91.2162 19.35L91.0104 19.693C91.7935 20.1629 92.6892 20.3953 93.6914 20.3953V19.9953ZM91.2173 19.3506C90.5041 18.9166 89.9534 18.2961 89.5653 17.4823L89.2042 17.6545C89.6234 18.5333 90.225 19.215 91.0093 19.6923L91.2173 19.3506ZM89.5653 17.4823C89.1767 16.6675 88.9793 15.7149 88.9793 14.6191H88.5793C88.5793 15.763 88.7855 16.7765 89.2042 17.6545L89.5653 17.4823ZM88.9793 14.6191C88.9793 12.9068 89.407 11.6031 90.2366 10.6806L89.9392 10.4131C89.024 11.4308 88.5793 12.8419 88.5793 14.6191H88.9793ZM90.237 10.6801C91.0638 9.7546 92.2286 9.28203 93.7598 9.28203V8.88203C92.1399 8.88203 90.8567 9.38602 89.9387 10.4136L90.237 10.6801ZM93.7598 9.28203C95.2215 9.28203 96.3618 9.76159 97.204 10.709L97.503 10.4433C96.5743 9.39857 95.3189 8.88203 93.7598 8.88203V9.28203ZM97.205 10.7101C98.0553 11.6535 98.4914 12.9486 98.4914 14.6191H98.8914C98.8914 12.8783 98.4356 11.478 97.5021 10.4423L97.205 10.7101ZM90.3957 14.6191C90.3957 15.9883 90.6628 17.0635 91.2267 17.8153L91.5467 17.5753C91.0559 16.9209 90.7957 15.9453 90.7957 14.6191H90.3957ZM91.228 17.817C91.8067 18.5722 92.6554 18.9402 93.7402 18.9402V18.5402C92.7547 18.5402 92.0344 18.2117 91.5455 17.5737L91.228 17.817ZM93.7402 18.9402C94.813 18.9402 95.6547 18.5715 96.233 17.817L95.9155 17.5737C95.426 18.2124 94.7117 18.5402 93.7402 18.5402V18.9402ZM96.2335 17.8163C96.8044 17.0643 97.075 15.9887 97.075 14.6191H96.675C96.675 15.9449 96.4117 16.9201 95.9149 17.5744L96.2335 17.8163ZM97.075 14.6191C97.075 13.2499 96.8013 12.1847 96.2208 11.4573L95.9081 11.7068C96.4083 12.3335 96.675 13.293 96.675 14.6191H97.075ZM96.2221 11.4589C95.6428 10.7172 94.7944 10.3566 93.7109 10.3566V10.7566C94.6978 10.7566 95.4184 11.0797 95.9068 11.7051L96.2221 11.4589ZM93.7109 10.3566C92.6254 10.3566 91.7812 10.7133 91.2158 11.4506C90.6582 12.1778 90.3957 13.245 90.3957 14.6191H90.7957C90.7957 13.2849 91.0525 12.3209 91.5332 11.694C92.0063 11.0771 92.7197 10.7566 93.7109 10.7566V10.3566ZM106.426 10.6445V10.8445H106.626V10.6445H106.426ZM103.721 10.6445V10.4445H103.521V10.6445H103.721ZM103.721 20V20.2H103.921V20H103.721ZM101.963 20H101.763V20.2H101.963V20ZM101.963 10.6445H102.163V10.4445H101.963V10.6445ZM100.088 10.6445H99.8879V10.8445H100.088V10.6445ZM100.088 9.82422L100.026 9.6339L99.8879 9.67863V9.82422H100.088ZM101.963 9.21875L102.024 9.40907L102.163 9.36434V9.21875H101.963ZM102.812 5.67383L102.662 5.5417L102.662 5.54255L102.812 5.67383ZM107.529 5.05859L107.719 5.12305L107.783 4.93408L107.594 4.86939L107.529 5.05859ZM107.061 6.43555L106.999 6.62589L107.186 6.68631L107.25 6.5L107.061 6.43555ZM103.721 9.27734H103.521V9.47734H103.721V9.27734ZM106.426 9.27734H106.626V9.07734H106.426V9.27734ZM106.426 10.4445H103.721V10.8445H106.426V10.4445ZM103.521 10.6445V20H103.921V10.6445H103.521ZM103.721 19.8H101.963V20.2H103.721V19.8ZM102.163 20V10.6445H101.763V20H102.163ZM101.963 10.4445H100.088V10.8445H101.963V10.4445ZM100.288 10.6445V9.82422H99.8879V10.6445H100.288ZM100.149 10.0145L102.024 9.40907L101.901 9.02843L100.026 9.6339L100.149 10.0145ZM102.163 9.21875V8.60352H101.763V9.21875H102.163ZM102.163 8.60352C102.163 7.32596 102.441 6.40513 102.963 5.8051L102.662 5.54255C102.051 6.24461 101.763 7.27691 101.763 8.60352H102.163ZM102.963 5.80595C103.485 5.21221 104.3 4.89727 105.449 4.89727V4.49727C104.229 4.49727 103.286 4.83336 102.662 5.5417L102.963 5.80595ZM105.449 4.89727C106.109 4.89727 106.78 5.01344 107.464 5.2478L107.594 4.86939C106.872 4.62198 106.157 4.49727 105.449 4.49727V4.89727ZM107.34 4.99414L106.871 6.37109L107.25 6.5L107.719 5.12305L107.34 4.99414ZM107.122 6.2452C106.504 6.04583 105.952 5.94258 105.469 5.94258V6.34258C105.897 6.34258 106.406 6.43464 106.999 6.62589L107.122 6.2452ZM105.469 5.94258C104.829 5.94258 104.322 6.15662 103.989 6.61024L104.312 6.84679C104.552 6.51917 104.924 6.34258 105.469 6.34258V5.94258ZM103.989 6.61024C103.665 7.05252 103.521 7.72335 103.521 8.58398H103.921C103.921 7.75191 104.063 7.18577 104.312 6.84679L103.989 6.61024ZM103.521 8.58398V9.27734H103.921V8.58398H103.521ZM103.721 9.47734H106.426V9.07734H103.721V9.47734ZM106.226 9.27734V10.6445H106.626V9.27734H106.226ZM113.457 18.5352H113.657V18.2466L113.387 18.3479L113.457 18.5352ZM113.457 19.8828L113.538 20.0659L113.657 20.0133V19.8828H113.457ZM112.695 20.0879L112.658 19.8913L112.654 19.8922L112.695 20.0879ZM108.516 10.6445H108.716V10.4445H108.516V10.6445ZM107.002 10.6445H106.802V10.8445H107.002V10.6445ZM107.002 9.80469L106.919 9.62289L106.802 9.67638V9.80469H107.002ZM108.535 9.10156L108.619 9.28336L108.7 9.24601L108.726 9.16038L108.535 9.10156ZM109.238 6.81641V6.61641H109.091L109.047 6.75759L109.238 6.81641ZM110.283 6.81641H110.483V6.61641H110.283V6.81641ZM110.283 9.27734H110.083V9.47734H110.283V9.27734ZM113.379 9.27734H113.579V9.07734H113.379V9.27734ZM113.379 10.6445V10.8445H113.579V10.6445H113.379ZM110.283 10.6445V10.4445H110.083V10.6445H110.283ZM110.723 18.2617L110.573 18.3941L110.574 18.3957L110.723 18.2617ZM111.963 18.9598C112.203 18.9598 112.481 18.9358 112.793 18.8892L112.734 18.4936C112.435 18.5382 112.178 18.5598 111.963 18.5598V18.9598ZM112.793 18.8892C113.103 18.843 113.351 18.7885 113.527 18.7224L113.387 18.3479C113.25 18.399 113.036 18.4487 112.734 18.4936L112.793 18.8892ZM113.257 18.5352V19.8828H113.657V18.5352H113.257ZM113.376 19.6997C113.235 19.7618 113 19.8269 112.658 19.8914L112.732 20.2844C113.081 20.2187 113.353 20.147 113.538 20.0659L113.376 19.6997ZM112.654 19.8922C112.329 19.9609 111.998 19.9953 111.66 19.9953V20.3953C112.025 20.3953 112.384 20.3581 112.737 20.2836L112.654 19.8922ZM111.66 19.9953C110.646 19.9953 109.921 19.7288 109.447 19.2299C108.971 18.7292 108.716 17.9599 108.716 16.8848H108.316C108.316 18.0166 108.584 18.9027 109.157 19.5054C109.731 20.1101 110.578 20.3953 111.66 20.3953V19.9953ZM108.716 16.8848V10.6445H108.316V16.8848H108.716ZM108.516 10.4445H107.002V10.8445H108.516V10.4445ZM107.202 10.6445V9.80469H106.802V10.6445H107.202ZM107.085 9.98648L108.619 9.28336L108.452 8.91977L106.919 9.62289L107.085 9.98648ZM108.726 9.16038L109.429 6.87522L109.047 6.75759L108.344 9.04275L108.726 9.16038ZM109.238 7.01641H110.283V6.61641H109.238V7.01641ZM110.083 6.81641V9.27734H110.483V6.81641H110.083ZM110.283 9.47734H113.379V9.07734H110.283V9.47734ZM113.179 9.27734V10.6445H113.579V9.27734H113.179ZM113.379 10.4445H110.283V10.8445H113.379V10.4445ZM110.083 10.6445V16.8359H110.483V10.6445H110.083ZM110.083 16.8359C110.083 17.4839 110.237 18.0132 110.573 18.394L110.873 18.1294C110.623 17.8462 110.483 17.425 110.483 16.8359H110.083ZM110.574 18.3957C110.918 18.7774 111.39 18.9598 111.963 18.9598V18.5598C111.481 18.5598 111.126 18.4101 110.871 18.1278L110.574 18.3957Z" fill="white"/>
</svg>
