<?xml version="1.0" encoding="UTF-8" standalone="no"?>
<!-- Uploaded to: SVG Repo, www.svgrepo.com, Transformed by: SVG Repo Mixer Tools -->

<svg
   aria-label="Minecraft"
   role="img"
   viewBox="0 0 512 512"
   stroke-linecap="square"
   version="1.1"
   id="svg36"
   sodipodi:docname="minecraft-svgrepo-com.svg"
   inkscape:version="1.1.1 (3bf5ae0d25, 2021-09-20)"
   xmlns:inkscape="http://www.inkscape.org/namespaces/inkscape"
   xmlns:sodipodi="http://sodipodi.sourceforge.net/DTD/sodipodi-0.dtd"
   xmlns:xlink="http://www.w3.org/1999/xlink"
   xmlns="http://www.w3.org/2000/svg"
   xmlns:svg="http://www.w3.org/2000/svg">
  <defs
     id="defs40" />
  <sodipodi:namedview
     id="namedview38"
     pagecolor="#ffffff"
     bordercolor="#666666"
     borderopacity="1.0"
     inkscape:pageshadow="2"
     inkscape:pageopacity="0.0"
     inkscape:pagecheckerboard="0"
     showgrid="false"
     inkscape:zoom="3.8940397"
     inkscape:cx="75.5"
     inkscape:cy="75.628401"
     inkscape:window-width="1366"
     inkscape:window-height="745"
     inkscape:window-x="-8"
     inkscape:window-y="-8"
     inkscape:window-maximized="1"
     inkscape:current-layer="SVGRepo_iconCarrier" />
  <g
     id="SVGRepo_bgCarrier"
     stroke-width="0" />
  <g
     id="SVGRepo_tracerCarrier"
     stroke-linecap="round"
     stroke-linejoin="round" />
  <g
     id="SVGRepo_iconCarrier">
    <g
       id="a"
       transform="matrix(19 11 0 22 76 142)">
      <path
         fill="#432"
         d="M.5.5h9v9h-9"
         id="path6" />
      <path
         stroke="#864"
         d="M2 8v1h2V8h5V7 H7V5"
         id="path8" />
      <path
         stroke="#643"
         d="M1 5zM2 9zM1 8V7h2V6h1M5 9h2V8H6V4M7 6h1v1M9 9zM9 4v1"
         id="path10" />
      <path
         stroke="#a75"
         d="M1 7h1M4 7h1M9 6z"
         id="path12" />
      <path
         stroke="#555"
         d="M5 5z"
         id="path14" />
      <path
         stroke="#593"
         d="M4 4V1h4v2H7V2H4v1H2v1"
         id="path16" />
      <path
         stroke="#6a4"
         d="M2 1h1M6 1zM7 2zM9 1v1"
         id="path18" />
      <path
         stroke="#7c5"
         d="M5 3zM3 2h1"
         id="path20" />
      <path
         stroke="#9c6"
         d="M1 1v1h1M8 1z"
         id="path22" />
    </g>
    <use
       xlink:href="#a"
       transform="matrix(-1 0 0 1 513 0)"
       opacity=".5"
       id="use25" />
    <g
       transform="matrix(-19 11-19-11 447 159)"
       id="g33">
      <path
         fill="#7b4"
         d="M.5.5h9v9h-9"
         id="path27" />
      <path
         stroke="#8c5"
         d="M1 1zM3 1zM4 7zM3 4v2H1v2h3v1h2V7M2 3h4V1H5v1h3M7 4v1H4M9 4v2H8v3"
         id="path29" />
      <path
         stroke="#ad7"
         d="M1 3v2M1 7zM1 9zM3 3zM4 4zM5 1zM5 3zM5 5v1M5 8v1M7 2v1M8 7h1"
         id="path31" />
    </g>
  </g>
</svg>
