<svg width="124" height="32" viewBox="0 0 124 32" fill="none" xmlns="http://www.w3.org/2000/svg">
<path d="M0 18.539V0H18.2306V2.31737C18.2306 3.59656 19.2515 4.63474 20.5094 4.63474H22.7882V18.539H18.2306V6.95211C18.2306 5.67292 17.2097 4.63474 15.9518 4.63474C14.6938 4.63474 13.6729 5.67292 13.6729 6.95211V13.9042H9.11529V6.95211C9.11529 5.67292 8.09438 4.63474 6.83647 4.63474C5.57856 4.63474 4.55765 5.67292 4.55765 6.95211V18.539H0Z" fill="white"/>
<path d="M33.9153 13.9042C36.4311 13.895 38.4638 11.8279 38.4729 9.26948C38.4638 6.71111 36.4311 4.63474 33.9153 4.63474C31.3995 4.64401 29.3668 6.71111 29.3576 9.26948C29.3668 11.8279 31.3995 13.9042 33.9153 13.9042ZM33.9153 18.539C28.8836 18.539 24.8 14.3862 24.8 9.26948C24.8 4.15273 28.8836 0 33.9153 0C38.9469 0 43.0306 4.15273 43.0306 9.26948C43.0306 14.3862 38.9469 18.539 33.9153 18.539Z" fill="white"/>
<path d="M54.1576 18.539C49.126 18.539 45.0424 14.3862 45.0424 9.26948H49.6C49.6091 11.8279 51.6418 13.9042 54.1576 13.9042H56.4365C57.6944 13.9042 58.7153 12.866 58.7153 11.5869V4.63474H49.6V0H63.2729V13.9042H60.9941C59.7362 13.9042 58.7153 14.9424 58.7153 16.2216V18.539H54.1576Z" fill="white"/>
<path d="M65.2847 18.539V9.26948C65.2847 4.15273 69.3684 0 74.4 0H78.9576V2.31737C78.9576 3.59656 79.9786 4.63474 81.2365 4.63474H83.5153V18.539H78.9576V13.9042H72.1212V9.26948H78.9576V6.95211C78.9576 5.67292 77.9367 4.63474 76.6788 4.63474H74.4C71.8842 4.64401 69.8515 6.71111 69.8424 9.26948V18.539H65.2847Z" fill="white"/>
<path d="M85.5271 18.539V0H99.2V2.31737C99.2 3.59656 100.221 4.63474 101.479 4.63474H103.758V18.539H99.2V6.95211C99.2 5.67292 98.1791 4.63474 96.9212 4.63474H90.0847V18.539H85.5271Z" fill="white"/>
<path d="M114.885 18.539C109.853 18.539 105.769 14.3862 105.769 9.26948C105.769 4.15273 109.853 0 114.885 0H124V4.63474H114.885C112.369 4.64401 110.336 6.71111 110.327 9.26948C110.336 11.3551 111.685 13.1163 113.545 13.7003C114.338 13.3388 114.885 12.5231 114.885 11.5869V9.26948H124V18.539H119.442V16.2216C119.442 14.9424 118.421 13.9042 117.164 13.9042C115.906 13.9042 114.885 14.9424 114.885 16.2216V18.539Z" fill="white"/>
<path d="M33.913 29.7797L35.7546 29.6624C35.7945 29.9665 35.8756 30.1982 35.9981 30.3576C36.1975 30.6154 36.4824 30.7443 36.8527 30.7443C37.129 30.7443 37.3412 30.6791 37.4893 30.5487C37.6403 30.4155 37.7158 30.262 37.7158 30.0882C37.7158 29.9231 37.6446 29.7753 37.5022 29.645C37.3597 29.5146 37.0293 29.3915 36.5109 29.2756C35.662 29.0816 35.0567 28.8238 34.6949 28.5022C34.3303 28.1807 34.148 27.7708 34.148 27.2726C34.148 26.9452 34.2406 26.6367 34.4257 26.3471C34.6138 26.0545 34.8943 25.8257 35.2675 25.6605C35.6435 25.4925 36.1577 25.4085 36.81 25.4085C37.6104 25.4085 38.22 25.5606 38.6387 25.8648C39.0603 26.166 39.311 26.6469 39.3907 27.3073L37.5662 27.416C37.5178 27.1292 37.4153 26.9206 37.2586 26.7903C37.1048 26.6599 36.8911 26.5947 36.6177 26.5947C36.3927 26.5947 36.2232 26.644 36.1092 26.7425C35.9953 26.8381 35.9383 26.9554 35.9383 27.0944C35.9383 27.1958 35.9853 27.287 36.0793 27.3682C36.1705 27.4522 36.387 27.5304 36.7288 27.6028C37.5748 27.7882 38.1801 27.9765 38.5447 28.1676C38.9122 28.3559 39.1785 28.5906 39.3437 28.8715C39.5118 29.1525 39.5958 29.4668 39.5958 29.8144C39.5958 30.2229 39.4847 30.5994 39.2625 30.9441C39.0404 31.2889 38.7299 31.551 38.3311 31.7306C37.9323 31.9073 37.4295 31.9957 36.8228 31.9957C35.7574 31.9957 35.0197 31.7871 34.6095 31.37C34.1993 30.9528 33.9671 30.4227 33.913 29.7797Z" fill="white"/>
<path d="M42.7594 25.5172H48.643V27.0901H46.669V31.887H44.7334V27.0901H42.7594V25.5172Z" fill="white"/>
<path d="M56.2247 25.5172H58.156V29.3147C58.156 29.6913 58.0976 30.0476 57.9808 30.3836C57.8669 30.7168 57.686 31.0093 57.4382 31.2613C57.1932 31.5105 56.9354 31.6857 56.6648 31.7871C56.2888 31.929 55.8373 32 55.3103 32C55.0055 32 54.6722 31.9783 54.3105 31.9348C53.9516 31.8914 53.651 31.8059 53.4089 31.6785C53.1668 31.5481 52.9446 31.3642 52.7424 31.1266C52.543 30.8891 52.4062 30.6443 52.3322 30.3923C52.2125 29.9868 52.1527 29.6276 52.1527 29.3147V25.5172H54.084V29.406C54.084 29.7536 54.178 30.0259 54.366 30.2229C54.5569 30.4169 54.8204 30.514 55.1565 30.514C55.4898 30.514 55.7504 30.4184 55.9384 30.2272C56.1293 30.0331 56.2247 29.7594 56.2247 29.406V25.5172Z" fill="white"/>
<path d="M62.0887 25.5172H64.9642C65.5311 25.5172 65.9883 25.5954 66.3358 25.7518C66.6862 25.9082 66.9753 26.1327 67.2032 26.4253C67.4311 26.7178 67.5963 27.0582 67.6988 27.4464C67.8014 27.8345 67.8527 28.2459 67.8527 28.6804C67.8527 29.3611 67.7757 29.8897 67.6219 30.2663C67.471 30.64 67.2602 30.9543 66.9896 31.2092C66.7189 31.4612 66.4284 31.6292 66.1179 31.7132C65.6935 31.8291 65.3089 31.887 64.9642 31.887H62.0887V25.5172ZM64.0242 26.9597V30.4401H64.4985C64.903 30.4401 65.1907 30.3952 65.3616 30.3054C65.5325 30.2127 65.6664 30.0534 65.7633 29.8275C65.8601 29.5986 65.9085 29.2293 65.9085 28.7195C65.9085 28.0445 65.8003 27.5825 65.5838 27.3334C65.3673 27.0843 65.0084 26.9597 64.5071 26.9597H64.0242Z" fill="white"/>
<path d="M71.576 25.5172H73.5158V31.887H71.576V25.5172Z" fill="white"/>
<path d="M77.2904 28.7064C77.2904 27.6665 77.5752 26.8569 78.145 26.2775C78.7147 25.6982 79.508 25.4085 80.5249 25.4085C81.5675 25.4085 82.3708 25.6939 82.9348 26.2645C83.4988 26.8323 83.7808 27.6289 83.7808 28.6543C83.7808 29.3988 83.6569 30.01 83.409 30.4879C83.1641 30.963 82.808 31.3338 82.3408 31.6003C81.8765 31.8639 81.2969 31.9957 80.6018 31.9957C79.8954 31.9957 79.31 31.8812 78.8457 31.6524C78.3842 31.4236 78.0097 31.0615 77.722 30.5661C77.4342 30.0708 77.2904 29.4509 77.2904 28.7064ZM79.226 28.7151C79.226 29.3582 79.3428 29.8202 79.5763 30.1012C79.8128 30.3822 80.1332 30.5227 80.5377 30.5227C80.9536 30.5227 81.2755 30.3851 81.5034 30.1099C81.7313 29.8347 81.8452 29.3408 81.8452 28.6282C81.8452 28.0286 81.7256 27.5912 81.4863 27.316C81.2499 27.0379 80.928 26.8989 80.5206 26.8989C80.1304 26.8989 79.817 27.0394 79.5806 27.3204C79.3442 27.6013 79.226 28.0663 79.226 28.7151Z" fill="white"/>
<path d="M87.111 29.7797L88.9526 29.6624C88.9924 29.9665 89.0736 30.1982 89.1961 30.3576C89.3955 30.6154 89.6804 30.7443 90.0507 30.7443C90.327 30.7443 90.5392 30.6791 90.6873 30.5487C90.8383 30.4155 90.9138 30.262 90.9138 30.0882C90.9138 29.9231 90.8426 29.7753 90.7001 29.645C90.5577 29.5146 90.2273 29.3915 89.7088 29.2756C88.86 29.0816 88.2547 28.8238 87.8929 28.5022C87.5283 28.1807 87.346 27.7708 87.346 27.2726C87.346 26.9452 87.4386 26.6367 87.6237 26.3471C87.8117 26.0545 88.0923 25.8257 88.4655 25.6605C88.8415 25.4925 89.3556 25.4085 90.0079 25.4085C90.8084 25.4085 91.418 25.5606 91.8367 25.8648C92.2583 26.166 92.5089 26.6469 92.5887 27.3073L90.7642 27.416C90.7158 27.1292 90.6133 26.9206 90.4566 26.7903C90.3028 26.6599 90.0891 26.5947 89.8157 26.5947C89.5906 26.5947 89.4211 26.644 89.3072 26.7425C89.1933 26.8381 89.1363 26.9554 89.1363 27.0944C89.1363 27.1958 89.1833 27.287 89.2773 27.3682C89.3684 27.4522 89.5849 27.5304 89.9268 27.6028C90.7728 27.7882 91.3781 27.9765 91.7427 28.1676C92.1102 28.3559 92.3765 28.5906 92.5417 28.8715C92.7098 29.1525 92.7938 29.4668 92.7938 29.8144C92.7938 30.2229 92.6827 30.5994 92.4605 30.9441C92.2383 31.2889 91.9278 31.551 91.5291 31.7306C91.1303 31.9073 90.6275 31.9957 90.0208 31.9957C88.9554 31.9957 88.2176 31.7871 87.8075 31.37C87.3973 30.9528 87.1651 30.4227 87.111 29.7797Z" fill="white"/>
</svg>
